<svg width="156" height="27" viewBox="0 0 156 27" fill="none" xmlns="http://www.w3.org/2000/svg">
<path d="M2.89844 7.89654C2.89844 8.34497 3.44317 8.56668 3.75632 8.2457L9.79425 2.05708C9.88835 1.96063 10.0174 1.90625 10.1521 1.90625H12.3801C12.8253 1.90625 13.0485 2.44446 12.7339 2.75955L5.72817 9.77528C5.54574 9.95797 5.5324 10.2495 5.69738 10.4481L12.952 19.1805C13.2227 19.5063 12.991 20 12.5674 20H10.2151C10.0642 20 9.92141 19.9318 9.82648 19.8146L3.81038 12.381C3.62362 12.1502 3.27809 12.1321 3.06817 12.342L3.04488 12.3653C2.95112 12.459 2.89844 12.5862 2.89844 12.7188V19.5C2.89844 19.7761 2.67458 20 2.39844 20H0.667969C0.391826 20 0.167969 19.7761 0.167969 19.5V2.40625C0.167969 2.13011 0.391826 1.90625 0.667969 1.90625H2.39844C2.67458 1.90625 2.89844 2.13011 2.89844 2.40625V7.89654Z" fill="#505050"/>
<path d="M17.7148 0.207031C17.991 0.207031 18.2148 0.430889 18.2148 0.707031V19.5C18.2148 19.7761 17.991 20 17.7148 20H16.0781C15.802 20 15.5781 19.7761 15.5781 19.5V0.707032C15.5781 0.430889 15.802 0.207031 16.0781 0.207031H17.7148Z" fill="#505050"/>
<path d="M31.9585 14.4235C31.9533 14.6959 31.731 14.9141 31.4586 14.9141H24.3084C24.0176 14.9141 23.7847 15.1625 23.8388 15.4483C23.9697 16.1394 24.2512 16.7075 24.6836 17.1523C25.2227 17.6992 25.9141 17.9727 26.7578 17.9727C27.4141 17.9727 27.957 17.8164 28.3867 17.5039C28.7395 17.2426 29.1334 16.7954 29.5682 16.1625C29.718 15.9444 30.0084 15.8701 30.2395 15.999L31.6085 16.7628C31.8533 16.8994 31.9392 17.2114 31.7863 17.4465C31.5233 17.8508 31.2494 18.2098 30.9648 18.5234C30.582 18.9375 30.1719 19.2812 29.7344 19.5547C29.2969 19.8203 28.8242 20.0156 28.3164 20.1406C27.8086 20.2656 27.2578 20.3281 26.6641 20.3281C24.9609 20.3281 23.5938 19.7812 22.5625 18.6875C21.5312 17.5859 21.0156 16.125 21.0156 14.3047C21.0156 12.5 21.5156 11.0391 22.5156 9.92188C23.5234 8.82031 24.8594 8.26953 26.5234 8.26953C28.2031 8.26953 29.5312 8.80469 30.5078 9.875C31.4766 10.9375 31.9609 12.4102 31.9609 14.293L31.9585 14.4235ZM28.5949 12.7578C28.9223 12.7578 29.1643 12.4457 29.0305 12.1468C28.5834 11.1479 27.7672 10.6484 26.582 10.6484C26.2617 10.6484 25.9609 10.6992 25.6797 10.8008C25.3984 10.8945 25.1406 11.0352 24.9062 11.2227C24.6797 11.4023 24.4844 11.6211 24.3203 11.8789C24.2652 11.9655 24.2145 12.0561 24.1682 12.1507C24.0241 12.4449 24.2655 12.7578 24.5931 12.7578H28.5949Z" fill="#505050"/>
<path d="M45.2475 14.4235C45.2424 14.6959 45.0201 14.9141 44.7476 14.9141H37.5975C37.3066 14.9141 37.0738 15.1625 37.1279 15.4483C37.2587 16.1394 37.5403 16.7075 37.9727 17.1523C38.5117 17.6992 39.2031 17.9727 40.0469 17.9727C40.7031 17.9727 41.2461 17.8164 41.6758 17.5039C42.0286 17.2426 42.4224 16.7954 42.8572 16.1625C43.007 15.9444 43.2975 15.8701 43.5285 15.999L44.8975 16.7628C45.1424 16.8994 45.2282 17.2114 45.0753 17.4465C44.8123 17.8508 44.5385 18.2098 44.2539 18.5234C43.8711 18.9375 43.4609 19.2812 43.0234 19.5547C42.5859 19.8203 42.1133 20.0156 41.6055 20.1406C41.0977 20.2656 40.5469 20.3281 39.9531 20.3281C38.25 20.3281 36.8828 19.7812 35.8516 18.6875C34.8203 17.5859 34.3047 16.125 34.3047 14.3047C34.3047 12.5 34.8047 11.0391 35.8047 9.92188C36.8125 8.82031 38.1484 8.26953 39.8125 8.26953C41.4922 8.26953 42.8203 8.80469 43.7969 9.875C44.7656 10.9375 45.25 12.4102 45.25 14.293L45.2475 14.4235ZM41.8839 12.7578C42.2114 12.7578 42.4534 12.4457 42.3196 12.1468C41.8725 11.1479 41.0563 10.6484 39.8711 10.6484C39.5508 10.6484 39.25 10.6992 38.9688 10.8008C38.6875 10.8945 38.4297 11.0352 38.1953 11.2227C37.9688 11.4023 37.7734 11.6211 37.6094 11.8789C37.5543 11.9655 37.5035 12.0561 37.4572 12.1507C37.3132 12.4449 37.5546 12.7578 37.8822 12.7578H41.8839Z" fill="#505050"/>
<path d="M64.1562 8.94198C64.3216 9.02238 64.4219 9.19276 64.4219 9.37661V11.1826C64.4219 11.6524 63.8163 11.8748 63.4662 11.5616C63.2337 11.3537 63.0132 11.19 62.8047 11.0703C62.3359 10.7891 61.7852 10.6484 61.1523 10.6484C60.1602 10.6484 59.3359 10.9961 58.6797 11.6914C58.0234 12.3867 57.6953 13.2578 57.6953 14.3047C57.6953 15.375 58.0117 16.2539 58.6445 16.9414C59.2852 17.6289 60.1016 17.9727 61.0938 17.9727C61.7266 17.9727 62.2852 17.8359 62.7695 17.5625C62.987 17.4393 63.2221 17.2622 63.4749 17.0314C63.8209 16.7154 64.4219 16.9367 64.4219 17.4054V19.1921C64.4219 19.3788 64.3182 19.5512 64.1495 19.6313C63.17 20.0958 62.1905 20.3281 61.2109 20.3281C59.4453 20.3281 57.9688 19.7578 56.7812 18.6172C55.5938 17.4688 55 16.043 55 14.3398C55 12.6367 55.6016 11.1992 56.8047 10.0273C58.0078 8.85547 59.4844 8.26953 61.2344 8.26953C62.2603 8.26953 63.2343 8.49368 64.1562 8.94198Z" fill="#505050"/>
<path d="M66.4375 14.2109C66.4375 12.5625 67.0273 11.1602 68.207 10.0039C69.3867 8.84766 70.8242 8.26953 72.5195 8.26953C74.2227 8.26953 75.668 8.85156 76.8555 10.0156C78.0273 11.1797 78.6133 12.6094 78.6133 14.3047C78.6133 16.0156 78.0234 17.4492 76.8438 18.6055C75.6562 19.7539 74.1992 20.3281 72.4727 20.3281C70.7617 20.3281 69.3281 19.7422 68.1719 18.5703C67.0156 17.4141 66.4375 15.9609 66.4375 14.2109ZM69.1328 14.2578C69.1328 15.3984 69.4375 16.3008 70.0469 16.9648C70.6719 17.6367 71.4961 17.9727 72.5195 17.9727C73.5508 17.9727 74.375 17.6406 74.9922 16.9766C75.6094 16.3125 75.918 15.4258 75.918 14.3164C75.918 13.207 75.6094 12.3203 74.9922 11.6562C74.3672 10.9844 73.543 10.6484 72.5195 10.6484C71.5117 10.6484 70.6953 10.9844 70.0703 11.6562C69.4453 12.3281 69.1328 13.1953 69.1328 14.2578Z" fill="#505050"/>
<path d="M81.4141 9.08594C81.4141 8.80979 81.6379 8.58594 81.9141 8.58594H83.7489C83.9156 8.58594 84.0508 8.72111 84.0508 8.88785V8.88785C84.0508 9.16012 84.3869 9.29692 84.5903 9.11591C84.8731 8.86422 85.1268 8.67975 85.3516 8.5625C85.7344 8.36719 86.2148 8.26953 86.793 8.26953C87.846 8.26953 88.7191 8.64488 89.4124 9.39557C89.6477 9.65039 90.0698 9.66054 90.3156 9.41579C91.083 8.65162 92.0494 8.26953 93.2148 8.26953C95.7852 8.26953 97.0703 9.82812 97.0703 12.9453V19.5C97.0703 19.7761 96.8465 20 96.5703 20H94.9219C94.6457 20 94.4219 19.7761 94.4219 19.5V13.6602C94.4219 12.5664 94.2891 11.793 94.0234 11.3398C93.75 10.8789 93.3008 10.6484 92.6758 10.6484C91.9492 10.6484 91.418 10.9219 91.082 11.4688C90.7539 12.0156 90.5898 12.8945 90.5898 14.1055V19.5C90.5898 19.7761 90.366 20 90.0898 20H88.4414C88.1653 20 87.9414 19.7761 87.9414 19.5V13.6953C87.9414 11.6641 87.3555 10.6484 86.1836 10.6484C85.4414 10.6484 84.8984 10.9258 84.5547 11.4805C84.2188 12.0352 84.0508 12.9102 84.0508 14.1055V19.5C84.0508 19.7761 83.8269 20 83.5508 20H81.9141C81.6379 20 81.4141 19.7761 81.4141 19.5V9.08594Z" fill="#505050"/>
<path d="M103.34 25.7109C103.34 25.9871 103.116 26.2109 102.84 26.2109H101.203C100.927 26.2109 100.703 25.9871 100.703 25.7109V9.08594C100.703 8.80979 100.927 8.58594 101.203 8.58594H102.976C103.177 8.58594 103.34 8.74883 103.34 8.94977V8.94977C103.34 9.2739 103.742 9.44581 104.001 9.25107C104.872 8.59671 105.831 8.26953 106.879 8.26953C108.449 8.26953 109.742 8.84766 110.758 10.0039C111.789 11.1523 112.305 12.6016 112.305 14.3516C112.305 16.0625 111.793 17.4883 110.77 18.6289C109.754 19.7617 108.473 20.3281 106.926 20.3281C105.969 20.3281 105.085 20.0539 104.273 19.5053C103.902 19.255 103.34 19.4952 103.34 19.9424V25.7109ZM109.609 14.3633C109.609 13.2695 109.312 12.3789 108.719 11.6914C108.117 10.9961 107.359 10.6484 106.445 10.6484C105.477 10.6484 104.691 10.9844 104.09 11.6562C103.488 12.3281 103.188 13.2109 103.188 14.3047C103.188 15.375 103.488 16.2578 104.09 16.9531C104.684 17.6328 105.465 17.9727 106.434 17.9727C107.348 17.9727 108.102 17.6289 108.695 16.9414C109.305 16.2539 109.609 15.3945 109.609 14.3633Z" fill="#505050"/>
<path d="M117.23 8.58594C117.507 8.58594 117.73 8.8098 117.73 9.08594V15.1367C117.73 17.0273 118.477 17.9727 119.969 17.9727C121.461 17.9727 122.207 17.0273 122.207 15.1367V9.08594C122.207 8.8098 122.431 8.58594 122.707 8.58594H124.344C124.62 8.58594 124.844 8.8098 124.844 9.08594V15.1953C124.844 16.1094 124.73 16.8984 124.504 17.5625C124.285 18.1562 123.906 18.6914 123.367 19.168C122.477 19.9414 121.344 20.3281 119.969 20.3281C118.602 20.3281 117.473 19.9414 116.582 19.168C116.035 18.6914 115.648 18.1562 115.422 17.5625C115.203 17.0312 115.094 16.2422 115.094 15.1953V9.08594C115.094 8.80979 115.318 8.58594 115.594 8.58594H117.23Z" fill="#505050"/>
<path d="M131.391 11.0469C131.114 11.0469 130.891 11.2707 130.891 11.5469V19.5C130.891 19.7761 130.667 20 130.391 20H128.754C128.478 20 128.254 19.7761 128.254 19.5V11.5469C128.254 11.2707 128.03 11.0469 127.754 11.0469H127.629C127.353 11.0469 127.129 10.823 127.129 10.5469V9.08594C127.129 8.8098 127.353 8.58594 127.629 8.58594H127.754C128.03 8.58594 128.254 8.36208 128.254 8.08594V4.90234C128.254 4.6262 128.478 4.40234 128.754 4.40234H130.391C130.667 4.40234 130.891 4.6262 130.891 4.90234V8.08594C130.891 8.36208 131.114 8.58594 131.391 8.58594H132.441C132.718 8.58594 132.941 8.8098 132.941 9.08594V10.5469C132.941 10.823 132.718 11.0469 132.441 11.0469H131.391Z" fill="#505050"/>
<path d="M145.349 14.4235C145.344 14.6959 145.122 14.9141 144.849 14.9141H137.699C137.408 14.9141 137.175 15.1625 137.229 15.4483C137.36 16.1394 137.642 16.7075 138.074 17.1523C138.613 17.6992 139.305 17.9727 140.148 17.9727C140.805 17.9727 141.348 17.8164 141.777 17.5039C142.13 17.2426 142.524 16.7954 142.959 16.1625C143.109 15.9444 143.399 15.8701 143.63 15.999L144.999 16.7628C145.244 16.8994 145.33 17.2114 145.177 17.4465C144.914 17.8508 144.64 18.2098 144.355 18.5234C143.973 18.9375 143.562 19.2812 143.125 19.5547C142.688 19.8203 142.215 20.0156 141.707 20.1406C141.199 20.2656 140.648 20.3281 140.055 20.3281C138.352 20.3281 136.984 19.7812 135.953 18.6875C134.922 17.5859 134.406 16.125 134.406 14.3047C134.406 12.5 134.906 11.0391 135.906 9.92188C136.914 8.82031 138.25 8.26953 139.914 8.26953C141.594 8.26953 142.922 8.80469 143.898 9.875C144.867 10.9375 145.352 12.4102 145.352 14.293L145.349 14.4235ZM141.985 12.7578C142.313 12.7578 142.555 12.4457 142.421 12.1468C141.974 11.1479 141.158 10.6484 139.973 10.6484C139.652 10.6484 139.352 10.6992 139.07 10.8008C138.789 10.8945 138.531 11.0352 138.297 11.2227C138.07 11.4023 137.875 11.6211 137.711 11.8789C137.656 11.9655 137.605 12.0561 137.559 12.1507C137.415 12.4449 137.656 12.7578 137.984 12.7578H141.985Z" fill="#505050"/>
<path d="M148.234 9.08594C148.234 8.80979 148.458 8.58594 148.734 8.58594H150.58C150.741 8.58594 150.871 8.71646 150.871 8.87746V8.87746C150.871 9.14052 151.197 9.2732 151.395 9.10012C151.671 8.85863 151.926 8.67942 152.16 8.5625C152.543 8.36719 152.996 8.26953 153.52 8.26953C154.09 8.26953 154.681 8.4218 155.293 8.72634C155.527 8.84287 155.609 9.13004 155.492 9.36398L154.755 10.8383C154.617 11.1137 154.267 11.1949 153.99 11.0608C153.664 10.9031 153.343 10.8242 153.027 10.8242C151.59 10.8242 150.871 11.9102 150.871 14.082V19.5C150.871 19.7761 150.647 20 150.371 20H148.734C148.458 20 148.234 19.7761 148.234 19.5V9.08594Z" fill="#505050"/>
</svg>
