<svg width="116" height="18" viewBox="0 0 116 18" fill="none" xmlns="http://www.w3.org/2000/svg">
<path d="M11.7266 17.0938C12.8281 17.0938 13.5898 16.3438 13.5898 15.2656C13.5898 14.7266 13.4141 14.3281 12.793 13.4961L8.78516 8.08203L12.5469 4.01562C13.0625 3.45312 13.25 3.08984 13.25 2.60938C13.25 1.66016 12.5117 0.910156 11.5508 0.910156C11 0.910156 10.5547 1.15625 10.0273 1.73047L4.64844 7.57812H4.4375V2.97266C4.4375 1.64844 3.73438 0.886719 2.49219 0.886719C1.25 0.886719 0.558594 1.63672 0.558594 2.97266V15.0312C0.558594 16.3438 1.28516 17.1172 2.53906 17.1172C3.75781 17.1172 4.4375 16.3672 4.4375 15.0312V12.0312L5.91406 10.5312L9.80469 15.8867C10.4141 16.7305 11 17.0938 11.7266 17.0938ZM26.9516 15.3828C26.9516 14.4336 26.2719 13.7656 25.2992 13.7656H20.3188V2.97266C20.3188 1.64844 19.6156 0.886719 18.3734 0.886719C17.1313 0.886719 16.4398 1.63672 16.4398 2.97266V14.7852C16.4398 16.2266 17.225 17 18.6898 17H25.2992C26.2719 17 26.9516 16.332 26.9516 15.3828ZM29.2977 14.7852C29.2977 16.2266 30.0828 17 31.5477 17H38.743C39.6922 17 40.325 16.4023 40.325 15.4648C40.325 14.5391 39.6922 13.9297 38.7547 13.9297H33.1297V10.3672H38.5203C39.3523 10.3672 39.9148 9.81641 39.9148 8.96094C39.9148 8.11719 39.3523 7.53125 38.5203 7.53125H33.1297V4.07422H38.8016C39.6922 4.07422 40.325 3.45312 40.325 2.55078C40.325 1.63672 39.6922 1.00391 38.8016 1.00391H31.5477C30.0828 1.00391 29.2977 1.78906 29.2977 3.21875V14.7852ZM43.3273 14.7852C43.3273 16.2266 44.1125 17 45.5773 17H52.7727C53.7219 17 54.3547 16.4023 54.3547 15.4648C54.3547 14.5391 53.7219 13.9297 52.7844 13.9297H47.1594V10.3672H52.55C53.382 10.3672 53.9445 9.81641 53.9445 8.96094C53.9445 8.11719 53.382 7.53125 52.55 7.53125H47.1594V4.07422H52.8312C53.7219 4.07422 54.3547 3.45312 54.3547 2.55078C54.3547 1.63672 53.7219 1.00391 52.8312 1.00391H45.5773C44.1125 1.00391 43.3273 1.78906 43.3273 3.21875V14.7852ZM60.9547 15.1016V7.4375H61.107L66.5445 15.582C67.3414 16.7539 67.8688 17.1172 68.7359 17.1172C69.9195 17.1172 70.5523 16.3672 70.5523 14.9609V2.90234C70.5523 1.63672 69.8727 0.886719 68.7359 0.886719C67.6109 0.886719 66.9547 1.63672 66.9547 2.90234V10.4727H66.8023L61.4117 2.43359C60.6383 1.30859 60.1461 0.886719 59.2906 0.886719C58.0133 0.886719 57.3688 1.66016 57.3688 3.16016V15.1016C57.3688 16.3555 58.0367 17.1172 59.1734 17.1172C60.3102 17.1172 60.9547 16.3672 60.9547 15.1016ZM73.7188 10.0273C73.7188 14.5859 76.3203 17.3516 80.7852 17.3516C85.2266 17.3516 87.8398 14.5977 87.8398 10.0273V8.11719C87.8398 3.51172 85.2266 0.710938 80.7852 0.710938C76.3438 0.710938 73.7188 3.5 73.7188 8.11719V10.0273ZM77.5977 8.09375C77.5977 5.44531 78.7812 3.875 80.7852 3.875C82.7656 3.875 83.9609 5.44531 83.9609 8.09375V10.0273C83.9609 12.6406 82.7773 14.1875 80.7852 14.1875C78.7812 14.1875 77.5977 12.6406 77.5977 10.0273V8.09375ZM95.6469 17.1172C96.8539 17.1172 97.5922 16.3438 97.5922 15.0781V4.17969H100.651C101.541 4.17969 102.198 3.5 102.198 2.59766C102.198 1.68359 101.541 1.00391 100.651 1.00391H90.6781C89.7875 1.00391 89.1195 1.68359 89.1195 2.59766C89.1195 3.5 89.7875 4.17969 90.6781 4.17969H93.7133V15.0781C93.7133 16.3438 94.4398 17.1172 95.6469 17.1172ZM104.251 14.7852C104.251 16.2266 105.036 17 106.501 17H113.696C114.645 17 115.278 16.4023 115.278 15.4648C115.278 14.5391 114.645 13.9297 113.708 13.9297H108.083V10.3672H113.473C114.305 10.3672 114.868 9.81641 114.868 8.96094C114.868 8.11719 114.305 7.53125 113.473 7.53125H108.083V4.07422H113.755C114.645 4.07422 115.278 3.45312 115.278 2.55078C115.278 1.63672 114.645 1.00391 113.755 1.00391H106.501C105.036 1.00391 104.251 1.78906 104.251 3.21875V14.7852Z" fill="#505050"/>
</svg>
