<svg width="139" height="22" viewBox="0 0 139 22" fill="none" xmlns="http://www.w3.org/2000/svg">
<path d="M11.5324 2.48445C11.8559 1.96446 11.6628 1.19763 11.0809 1.00694L8.99881 0.32467C8.45842 0.147594 7.87764 0.456587 7.66602 0.984404C7.38366 1.68868 7.02713 2.40313 6.736 2.856C5.59429 4.66551 3.91119 7.17109 0.506565 9.55706C-0.0726328 9.96297 -0.110597 10.8265 0.457216 11.2482L1.95886 12.3634C2.30369 12.6195 2.77468 12.6284 3.11969 12.3725C4.99011 10.9855 6.78497 9.24361 8.28073 7.42987C8.47432 7.19513 8.76121 7.056 9.06547 7.056H13.3402C13.9712 7.056 14.4336 7.63267 14.2171 8.22543C13.6532 9.7695 12.5739 11.7427 11.392 13.056C9.5873 15.073 7.42573 16.9022 3.36197 18.394C2.62927 18.663 2.41985 19.6248 3.00321 20.1433L4.66182 21.6176C4.94713 21.8712 5.35327 21.9411 5.704 21.7904C9.88991 19.992 12.6446 17.8526 14.872 15.12C17.08 12.408 18.376 9.24 19.024 7.248C19.1502 6.86951 19.3161 6.49102 19.4905 6.14043C19.733 5.65282 19.5892 5.0509 19.1259 4.76465L17.394 3.69452C17.1487 3.54294 16.8506 3.50807 16.5686 3.56838C15.9828 3.69366 15.2554 3.768 14.632 3.768H12.336C11.639 3.768 11.1643 3.07633 11.5324 2.48445V2.48445Z" fill="#505050"/>
<path d="M26.5783 18.3971C26.4698 18.8299 26.552 19.3058 26.8887 19.5985L28.4992 20.999C28.8416 21.2967 29.338 21.3179 29.7463 21.12C30.1493 20.9247 30.4996 20.8148 30.736 20.736C35.952 18.9058 40.7537 16.2688 44.1225 12.5962C44.4173 12.2749 44.4512 11.7964 44.2206 11.4263L43.2706 9.90197C42.9117 9.32603 42.0936 9.26627 41.6191 9.75148C38.862 12.5711 35.0029 14.8946 31.9386 16.0899C31.3124 16.3342 30.664 15.8563 30.664 15.1841V4.704C30.664 4.04028 30.7019 3.4524 30.7718 2.83311C30.8405 2.22475 30.3765 1.68 29.7643 1.68H27.6024C26.9666 1.68 26.4888 2.26694 26.5647 2.8982C26.6345 3.47832 26.68 4.11014 26.68 4.704V17.328C26.68 17.7076 26.6704 18.0295 26.5783 18.3971Z" fill="#505050"/>
<path d="M48.3679 10.1469C47.7559 10.3181 47.4392 11.0009 47.7189 11.5714L48.6082 13.3857C48.8211 13.82 49.3149 14.0411 49.7768 13.8975C51.7667 13.2791 53.7881 12.4636 55.6262 11.6058C56.3014 11.2907 57.088 11.7761 57.088 12.5212V17.928C57.088 18.6254 57.0528 19.5162 57.0038 20.2545C56.9633 20.8638 57.4444 21.408 58.0551 21.408H60.1783C60.8427 21.408 61.3726 20.759 61.3274 20.0961C61.2793 19.3916 61.264 18.5793 61.264 17.928V9.00875C61.264 8.67354 61.4324 8.36132 61.7094 8.17251C63.5373 6.92646 65.372 5.46978 66.9181 4.0486C67.3354 3.66504 67.3313 3.01093 66.9213 2.61967L65.3038 1.07631C64.8844 0.67608 64.214 0.714878 63.8183 1.13858C62.2094 2.86127 59.7501 4.95945 57.664 6.24C55.2254 7.72056 52.1745 9.08261 48.3679 10.1469Z" fill="#505050"/>
<path d="M89.9351 3.56298C90.1747 2.96877 89.8584 2.27195 89.238 2.11196L86.9235 1.51506C86.3632 1.37055 85.799 1.73049 85.6697 2.29452C84.9282 5.52999 83.4714 9.22736 81.352 11.736C79.4951 13.9268 76.8582 15.9906 73.6778 17.3597C73.0045 17.6496 72.7955 18.5325 73.3064 19.0583L75.0543 20.8569C75.3362 21.1469 75.7662 21.2411 76.1356 21.0764C79.7324 19.4728 82.7787 16.5969 84.664 14.28C86.56 11.952 88.192 8.28 89.248 5.424C89.4445 4.87991 89.6695 4.22161 89.9351 3.56298Z" fill="#505050"/>
<path d="M97.1394 8.70684C96.5584 8.67581 96.064 9.13606 96.064 9.71781V12.1482C96.064 12.7292 96.5573 13.189 97.1377 13.1611C98.0903 13.1152 99.2589 13.08 100.216 13.08H112.96C113.547 13.08 114.261 13.1226 114.875 13.1622C115.441 13.1986 115.912 12.7522 115.912 12.1848V9.71134C115.912 9.13197 115.422 8.67942 114.844 8.72284C114.261 8.76668 113.594 8.808 112.96 8.808H100.216C99.3866 8.808 98.1393 8.76025 97.1394 8.70684Z" fill="#505050"/>
<path d="M125.224 17.76C125.224 18.4194 125.17 19.359 125.084 20.2177C125.023 20.831 125.496 21.384 126.112 21.384H128.379C128.975 21.384 129.44 20.8659 129.388 20.2721C129.304 19.2969 129.232 18.2175 129.232 17.76V13.0128C129.232 12.3208 129.918 11.8379 130.566 12.0791C132.499 12.7978 134.667 13.6627 136.509 14.5402C137.039 14.7926 137.679 14.5564 137.901 14.0131L138.79 11.8342C138.989 11.3468 138.777 10.7888 138.294 10.5778C136.199 9.66099 132.71 8.39468 129.952 7.55753C129.526 7.42818 129.232 7.03739 129.232 6.592V4.056C129.232 3.34357 129.287 2.66785 129.352 2.0402C129.413 1.44964 128.955 0.936 128.361 0.936H126.168C125.533 0.936 125.053 1.5224 125.121 2.154C125.19 2.8019 125.224 3.48067 125.224 4.056V17.76Z" fill="#505050"/>
</svg>
